<svg xmlns="http://www.w3.org/2000/svg" xmlns:xlink="http://www.w3.org/1999/xlink" width="144.689" height="82.77" viewBox="0 0 144.689 82.77">
  <defs>
    <clipPath id="clip-path">
      <path id="Path_845" data-name="Path 845" d="M0-1080H138.309v79.495H0Z" transform="translate(0 1080)" fill="#202950"/>
    </clipPath>
  </defs>
  <g id="patterns-1" transform="translate(-598.996 -281.85)">
    <g id="Layer_1" data-name="Layer 1" transform="translate(601.996 281.849)">
      <text id="BUSINESS_GATE" data-name="BUSINESS GATE" transform="translate(52 80.769)" fill="#202950" font-size="10" font-family="Helvetica" letter-spacing="0.24em"><tspan x="-54" y="0">BUSINESS GATE</tspan></text>
      <text id="ARTIFICIAL" transform="translate(55.701 68.292)" fill="#202950" font-size="10" font-family="Helvetica" letter-spacing="0.24em"><tspan x="-37" y="0">ARTIFICIAL</tspan></text>
      <g id="Group_455" data-name="Group 455" transform="translate(3.381)" clip-path="url(#clip-path)">
        <path id="Path_839" data-name="Path 839" d="M-187.83-26.192a21.235,21.235,0,0,0-13.551-4.859,21.236,21.236,0,0,0-13.551,4.859,21.311,21.311,0,0,0-7.743,16.435,21.312,21.312,0,0,0,7.743,16.435,21.238,21.238,0,0,0,13.551,4.859,21.269,21.269,0,0,0,5.808-.813V2.478a13.313,13.313,0,0,1-5.808,1.316A13.566,13.566,0,0,1-214.932-9.757a13.566,13.566,0,0,1,13.551-13.551,13.541,13.541,0,0,1,13.4,11.615,10.7,10.7,0,0,1,.155,1.936V11.538h7.744V-9.757a21.311,21.311,0,0,0-7.744-16.435" transform="translate(222.675 44.872)" fill="#202950"/>
        <path id="Path_840" data-name="Path 840" d="M-187.832-100.694a21.236,21.236,0,0,0-13.551-4.859,21.249,21.249,0,0,0-5.807.813v8.247a13.311,13.311,0,0,1,5.807-1.316,13.566,13.566,0,0,1,13.551,13.551,13.566,13.566,0,0,1-13.551,13.551,13.541,13.541,0,0,1-13.4-11.615,10.727,10.727,0,0,1-.155-1.936v-35.115h-7.744v35.115a21.311,21.311,0,0,0,7.744,16.435,21.237,21.237,0,0,0,13.551,4.859,21.238,21.238,0,0,0,13.551-4.859,21.312,21.312,0,0,0,7.743-16.435,21.311,21.311,0,0,0-7.743-16.435" transform="translate(270.114 119.374)" fill="#202950"/>
        <path id="Path_841" data-name="Path 841" d="M0-32.97a6.116,6.116,0,0,0,6.116,6.116,6.116,6.116,0,0,0,6.116-6.116,6.116,6.116,0,0,0-6.116-6.116A6.116,6.116,0,0,0,0-32.97" transform="translate(15.06 68.189)" fill="#1596d4"/>
        <path id="Path_842" data-name="Path 842" d="M-65.941-32.97a6.116,6.116,0,0,0-6.116-6.116,6.116,6.116,0,0,0-6.117,6.116,6.117,6.117,0,0,0,6.117,6.116,6.116,6.116,0,0,0,6.116-6.116" transform="translate(140.956 67.951)" fill="#8ec744"/>
        <path id="Path_843" data-name="Path 843" d="M-32.97,0a6.116,6.116,0,0,0-6.116,6.116,6.116,6.116,0,0,0,6.116,6.116,6.116,6.116,0,0,0,6.116-6.116A6.116,6.116,0,0,0-32.97,0" transform="translate(149.085 28.865)" fill="#ffd229"/>
        <path id="Path_844" data-name="Path 844" d="M-119.7-195.633a14.086,14.086,0,0,1-14.17-14.177,14.2,14.2,0,0,1,14.16-14.1,14.136,14.136,0,0,1,14.1,14.141A14.059,14.059,0,0,1-119.7-195.633m21.977-16.932a22.181,22.181,0,0,0-24.583-19.224,22.227,22.227,0,0,0-19.543,20.294,22.212,22.212,0,0,0,18.714,23.645,4.955,4.955,0,0,1,1.9.753,7.363,7.363,0,0,1,3.019,7.856,7.484,7.484,0,0,1-6.177,5.629c-.337.05-.672.111-1.028.17v7.958a14.951,14.951,0,0,0,11.828-5.612c4.439-5.514,4.661-11.511,1.531-17.836.438-.191.807-.353,1.177-.512a22.228,22.228,0,0,0,13.157-23.123" transform="translate(235.843 244.977)" fill="#202950"/>
      </g>
    </g>
  </g>
</svg>
